<svg width="25" height="25" viewBox="0 0 25 25" fill="none" xmlns="http://www.w3.org/2000/svg">
<path d="M22.9165 15.315V16.7562C22.9165 16.9954 22.906 17.2366 22.8852 17.4758C22.5929 20.7665 20.3071 22.9167 17.0088 22.9167H7.9908C6.32079 22.9167 4.91172 22.3747 3.89928 21.392C3.50265 21.0275 3.16865 20.5994 2.90771 20.1085C3.25215 19.6897 3.63834 19.2313 4.01409 18.7718C4.65078 18.0094 5.2666 17.2564 5.65279 16.7667C6.22685 16.0565 7.7403 14.1871 9.83824 15.0644C10.2662 15.2419 10.6419 15.4926 10.9864 15.7119C11.8318 16.2758 12.1867 16.4429 12.7816 16.1192C13.4392 15.7641 13.8671 15.0644 14.3159 14.3334C14.556 13.9459 14.7961 13.571 15.057 13.2264C16.1947 11.7434 17.9482 11.3466 19.4095 12.2238C20.1401 12.6624 20.7663 13.2159 21.3508 13.7788C21.4761 13.9041 21.6014 14.0201 21.7162 14.1349C21.8727 14.2916 22.3946 14.8137 22.9165 15.315Z" fill="white"/>
<path opacity="0.4" d="M17.0194 2.08337H7.9909C4.45257 2.08337 2.08325 4.55845 2.08325 8.24391V16.7563C2.08325 18.0398 2.3755 19.1791 2.90782 20.1086C3.25226 19.6898 3.63845 19.2314 4.0142 18.7708C4.65089 18.0095 5.2667 17.2565 5.65289 16.7667C6.22696 16.0566 7.7404 14.1872 9.83835 15.0645C10.2663 15.242 10.642 15.4926 10.9865 15.7119C11.8319 16.2759 12.1868 16.443 12.7817 16.1182C13.4393 15.7642 13.8672 15.0645 14.3161 14.3324C14.5561 13.946 14.7962 13.5711 15.0571 13.2264C16.1948 11.7435 17.9483 11.3466 19.4096 12.2239C20.1402 12.6625 20.7665 13.216 21.351 13.7789C21.4762 13.9042 21.6015 14.0201 21.7163 14.135C21.8728 14.2906 22.3947 14.8128 22.9166 15.3151V8.24391C22.9166 4.55845 20.5473 2.08337 17.0194 2.08337Z" fill="white"/>
<path d="M11.9316 9.16328C11.9316 10.6306 10.7093 11.8524 9.24284 11.8524C7.77741 11.8524 6.55518 10.6306 6.55518 9.16328C6.55518 7.69704 7.77741 6.47412 9.24284 6.47412C10.7093 6.47412 11.9316 7.69704 11.9316 9.16328Z" fill="white"/>
</svg>
