<svg width="20" height="20" viewBox="0 0 20 20" fill="none" xmlns="http://www.w3.org/2000/svg">
<path d="M13.9584 2.96662V1.66663C13.9584 1.32496 13.6751 1.04163 13.3334 1.04163C12.9918 1.04163 12.7084 1.32496 12.7084 1.66663V2.91663H7.29177V1.66663C7.29177 1.32496 7.00844 1.04163 6.66677 1.04163C6.3251 1.04163 6.04177 1.32496 6.04177 1.66663V2.96662C3.79177 3.17496 2.70011 4.51662 2.53344 6.50829C2.51678 6.74996 2.71678 6.94996 2.95011 6.94996H17.0501C17.2918 6.94996 17.4918 6.74162 17.4668 6.50829C17.3001 4.51662 16.2084 3.17496 13.9584 2.96662Z" fill="#828293"/>
<path opacity="0.4" d="M16.6667 8.19995C17.125 8.19995 17.5 8.57495 17.5 9.03328V14.1666C17.5 16.6666 16.25 18.3333 13.3333 18.3333H6.66667C3.75 18.3333 2.5 16.6666 2.5 14.1666V9.03328C2.5 8.57495 2.875 8.19995 3.33333 8.19995H16.6667Z" fill="#828293"/>
<path d="M7.08333 12.5C6.975 12.5 6.86666 12.475 6.76666 12.4334C6.66666 12.3917 6.57501 12.3334 6.49167 12.2584C6.41667 12.175 6.35832 12.0834 6.31666 11.9834C6.27499 11.8834 6.25 11.775 6.25 11.6667C6.25 11.5584 6.27499 11.45 6.31666 11.35C6.35832 11.25 6.41667 11.1584 6.49167 11.075C6.57501 11 6.66666 10.9417 6.76666 10.9C6.96666 10.8167 7.2 10.8167 7.4 10.9C7.5 10.9417 7.59166 11 7.67499 11.075C7.74999 11.1584 7.80834 11.25 7.85001 11.35C7.89168 11.45 7.91667 11.5584 7.91667 11.6667C7.91667 11.775 7.89168 11.8834 7.85001 11.9834C7.80834 12.0834 7.74999 12.175 7.67499 12.2584C7.59166 12.3334 7.5 12.3917 7.4 12.4334C7.3 12.475 7.19167 12.5 7.08333 12.5Z" fill="#828293"/>
<path d="M10.0001 12.5001C9.89175 12.5001 9.78341 12.4751 9.68341 12.4334C9.58341 12.3917 9.49176 12.3334 9.40842 12.2584C9.25842 12.1001 9.16675 11.8834 9.16675 11.6667C9.16675 11.4501 9.25842 11.2334 9.40842 11.0751C9.49176 11.0001 9.58341 10.9417 9.68341 10.9C9.88341 10.8084 10.1168 10.8084 10.3168 10.9C10.4168 10.9417 10.5084 11.0001 10.5917 11.0751C10.7417 11.2334 10.8334 11.4501 10.8334 11.6667C10.8334 11.8834 10.7417 12.1001 10.5917 12.2584C10.5084 12.3334 10.4168 12.3917 10.3168 12.4334C10.2168 12.4751 10.1084 12.5001 10.0001 12.5001Z" fill="#828293"/>
<path d="M7.08333 15.4167C6.975 15.4167 6.86666 15.3917 6.76666 15.35C6.66666 15.3083 6.57501 15.25 6.49167 15.175C6.34167 15.0167 6.25 14.8 6.25 14.5833C6.25 14.3667 6.34167 14.15 6.49167 13.9917C6.57501 13.9167 6.66666 13.8583 6.76666 13.8167C6.96666 13.7333 7.2 13.7333 7.4 13.8167C7.5 13.8583 7.59166 13.9167 7.67499 13.9917C7.82499 14.15 7.91667 14.3667 7.91667 14.5833C7.91667 14.8 7.82499 15.0167 7.67499 15.175C7.59166 15.25 7.5 15.3083 7.4 15.35C7.3 15.3917 7.19167 15.4167 7.08333 15.4167Z" fill="#828293"/>
</svg>
