<svg width="25" height="25" viewBox="0 0 25 25" fill="none" xmlns="http://www.w3.org/2000/svg">
<path opacity="0.4" d="M16.125 2.08337H7.84375C4.23958 2.08337 2.09375 4.2292 2.09375 7.83336V16.1146C2.09375 19.7188 4.25 21.8646 7.84375 21.8646H16.125C19.7292 21.8646 21.875 19.7188 21.875 16.1146V7.83336C21.875 4.2292 19.7188 2.08337 16.125 2.08337Z" fill="#828293"/>
<path d="M22.8749 19.6249L21.177 20.1979C20.7082 20.3541 20.3332 20.7187 20.177 21.1979L19.6041 22.8958C19.1145 24.3645 17.052 24.3333 16.5937 22.8645L14.6666 16.6666C14.2916 15.4374 15.427 14.2916 16.6457 14.677L22.8541 16.6041C24.3124 17.0624 24.3332 19.1353 22.8749 19.6249Z" fill="#828293"/>
</svg>
