<svg width="21" height="21" viewBox="0 0 21 21" fill="none" xmlns="http://www.w3.org/2000/svg">
<path d="M20.9165 13.3149V14.7561C20.9165 14.9952 20.906 15.2365 20.8852 15.4756C20.5929 18.7663 18.3071 20.9166 15.0088 20.9166H5.9908C4.32079 20.9166 2.91172 20.3746 1.89928 19.3919C1.50265 19.0274 1.16865 18.5992 0.907715 18.1084C1.25215 17.6896 1.63834 17.2312 2.01409 16.7717C2.65078 16.0093 3.2666 15.2563 3.65279 14.7665C4.22685 14.0564 5.7403 12.187 7.83824 13.0643C8.26618 13.2418 8.64193 13.4924 8.98637 13.7118C9.83181 14.2757 10.1867 14.4428 10.7816 14.119C11.4392 13.764 11.8671 13.0643 12.3159 12.3332C12.556 11.9458 12.7961 11.5709 13.057 11.2262C14.1947 9.74328 15.9482 9.34643 17.4095 10.2237C18.1401 10.6623 18.7663 11.2158 19.3508 11.7787C19.4761 11.904 19.6014 12.0199 19.7162 12.1348C19.8727 12.2915 20.3946 12.8136 20.9165 13.3149Z" fill="#828293"/>
<path opacity="0.4" d="M15.0194 0.0830078H5.9909C2.45257 0.0830078 0.083252 2.55808 0.083252 6.24354V14.7559C0.083252 16.0394 0.375503 17.1788 0.907818 18.1082C1.25226 17.6894 1.63845 17.231 2.0142 16.7704C2.65089 16.0091 3.2667 15.2561 3.65289 14.7664C4.22696 14.0562 5.7404 12.1868 7.83835 13.0641C8.26628 13.2416 8.64204 13.4923 8.98648 13.7116C9.83192 14.2755 10.1868 14.4426 10.7817 14.1178C11.4393 13.7638 11.8672 13.0641 12.3161 12.332C12.5561 11.9456 12.7962 11.5707 13.0571 11.2261C14.1948 9.7431 15.9483 9.34626 17.4096 10.2235C18.1402 10.6621 18.7665 11.2156 19.351 11.7785C19.4762 11.9038 19.6015 12.0198 19.7163 12.1346C19.8728 12.2902 20.3947 12.8124 20.9166 13.3147V6.24354C20.9166 2.55808 18.5473 0.0830078 15.0194 0.0830078Z" fill="#828293"/>
<path d="M9.93155 7.16292C9.93155 8.63021 8.70932 9.85208 7.24284 9.85208C5.77741 9.85208 4.55518 8.63021 4.55518 7.16292C4.55518 5.69667 5.77741 4.47375 7.24284 4.47375C8.70932 4.47375 9.93155 5.69667 9.93155 7.16292Z" fill="#828293"/>
</svg>
