<svg width="25" height="25" viewBox="0 0 25 25" fill="none" xmlns="http://www.w3.org/2000/svg">
<path d="M7.54158 2.08337H5.56242C3.28117 2.08337 2.08325 3.28129 2.08325 5.55212V7.53129C2.08325 9.80212 3.28117 11 5.552 11H7.53117C9.802 11 10.9999 9.80212 10.9999 7.53129V5.55212C11.0103 3.28129 9.81242 2.08337 7.54158 2.08337Z" fill="#828293"/>
<path opacity="0.4" d="M19.4479 2.08337H17.4688C15.1979 2.08337 14 3.28129 14 5.55212V7.53129C14 9.80212 15.1979 11 17.4688 11H19.4479C21.7188 11 22.9167 9.80212 22.9167 7.53129V5.55212C22.9167 3.28129 21.7188 2.08337 19.4479 2.08337Z" fill="#828293"/>
<path d="M19.4479 13.9896H17.4688C15.1979 13.9896 14 15.1875 14 17.4584V19.4375C14 21.7084 15.1979 22.9063 17.4688 22.9063H19.4479C21.7188 22.9063 22.9167 21.7084 22.9167 19.4375V17.4584C22.9167 15.1875 21.7188 13.9896 19.4479 13.9896Z" fill="#828293"/>
<path opacity="0.4" d="M7.54158 13.9896H5.56242C3.28117 13.9896 2.08325 15.1875 2.08325 17.4584V19.4375C2.08325 21.7188 3.28117 22.9167 5.552 22.9167H7.53117C9.802 22.9167 10.9999 21.7188 10.9999 19.448V17.4688C11.0103 15.1875 9.81242 13.9896 7.54158 13.9896Z" fill="#828293"/>
</svg>
