<svg width="25" height="25" viewBox="0 0 25 25" fill="none" xmlns="http://www.w3.org/2000/svg">
<path d="M12.5123 15.448C10.841 15.448 9.48901 14.146 9.48901 12.5105C9.48901 10.8751 10.841 9.56262 12.5123 9.56262C14.1836 9.56262 15.5037 10.8751 15.5037 12.5105C15.5037 14.146 14.1836 15.448 12.5123 15.448Z" fill="#828293"/>
<path opacity="0.4" d="M22.1146 14.9689C21.9123 14.6564 21.6249 14.3439 21.2523 14.146C20.9542 14.0002 20.7626 13.7606 20.5923 13.4793C20.0494 12.5835 20.3687 11.4064 21.2736 10.8752C22.3381 10.2814 22.6788 8.9585 22.0613 7.92725L21.3481 6.69808C20.7413 5.66683 19.4106 5.30225 18.3567 5.90641C17.4199 6.40641 16.217 6.07308 15.6741 5.18766C15.5038 4.896 15.408 4.5835 15.4293 4.271C15.4612 3.86475 15.3334 3.47933 15.1418 3.16683C14.7479 2.521 14.0347 2.0835 13.2469 2.0835H11.7459C10.9688 2.10433 10.2556 2.521 9.86171 3.16683C9.65945 3.47933 9.54235 3.86475 9.56364 4.271C9.58493 4.5835 9.48912 4.896 9.3188 5.18766C8.77588 6.07308 7.57295 6.40641 6.64681 5.90641C5.58227 5.30225 4.26224 5.66683 3.64481 6.69808L2.93157 7.92725C2.32478 8.9585 2.66543 10.2814 3.71932 10.8752C4.62418 11.4064 4.94354 12.5835 4.41127 13.4793C4.2303 13.7606 4.03869 14.0002 3.74061 14.146C3.37867 14.3439 3.05931 14.6564 2.88898 14.9689C2.4951 15.6147 2.5164 16.4272 2.91027 17.1043L3.64481 18.3543C4.03869 19.021 4.77322 19.4377 5.53969 19.4377C5.90163 19.4377 6.32744 19.3335 6.6681 19.1252C6.93423 18.9481 7.25359 18.8856 7.60489 18.8856C8.65878 18.8856 9.54235 19.7502 9.56364 20.7814C9.56364 21.9793 10.543 22.9168 11.7779 22.9168H13.2257C14.4499 22.9168 15.4293 21.9793 15.4293 20.7814C15.4612 19.7502 16.3448 18.8856 17.3986 18.8856C17.7393 18.8856 18.0587 18.9481 18.3354 19.1252C18.6761 19.3335 19.0913 19.4377 19.4639 19.4377C20.2197 19.4377 20.9542 19.021 21.3481 18.3543L22.0933 17.1043C22.4765 16.4064 22.5084 15.6147 22.1146 14.9689Z" fill="#828293"/>
</svg>
